<?xml version="1.0" encoding="utf-8"?>
<!-- Generator: Adobe Illustrator 23.0.1, SVG Export Plug-In . SVG Version: 6.00 Build 0)  -->
<svg version="1.1" id="Layer_1" xmlns="http://www.w3.org/2000/svg" xmlns:xlink="http://www.w3.org/1999/xlink" x="0px" y="0px"
	 viewBox="0 0 299.9 296.7" style="enable-background:new 0 0 299.9 296.7;" xml:space="preserve">
<style type="text/css">
	.st0{display:none;fill:#CC0C00;}
	.st1{fill:#E9F1F3;}
	.st2{fill:#DBE9EB;}
	.st3{fill:#FFFFFF;}
	.st4{fill:#D7E7EB;}
	.st5{fill:#CC0C00;}
	.st6{fill:#840A07;}
</style>
<g>
	<rect class="st0" width="299.9" height="296.7"/>
	<g>
		<g>
			<path class="st1" d="M236.5,127.9c0.6-0.9,0.2-2.1-0.8-2.6c-4.4-2-17-6.2-35.1-0.8c-22.7,6.8-69.4,19.5-88.9,26.8
				c-17.4,6.5-32.8,15-35.9,16.7c-0.3,0.2-0.5,0.6-0.4,0.9v0.1c0.2,0.6,0.7,1,1.3,1.2c4.2,1,21.6,4,54-5.8
				c37.4-11.3,87.5-24.9,95.3-28.3C232,133.7,235,130.3,236.5,127.9z"/>
			<path class="st2" d="M102.8,159.4l-20,6.3l-3.7,5.1c2.4,0.4,6.2,0.8,11.3,0.7L102.8,159.4z"/>
			<path class="st3" d="M112.2,153.1c19.5-7.3,66.2-19.9,88.9-26.8c12.6-3.8,23-3.7,29.7-2.7c-6.3-1.8-16.7-3.1-30.2,0.9
				c-22.7,6.8-69.4,19.5-88.9,26.8c-15.4,5.7-29.3,13.1-34.4,15.9C84.8,163.9,99.1,158,112.2,153.1z"/>
			<path class="st2" d="M224.9,132.4c-7.8,3.4-57.9,17-95.3,28.3c-26.1,7.9-45.1,9.3-53.7,9.1c0.2,0.3,0.5,0.5,0.9,0.6
				c4.2,1,21.6,4,54-5.8c37.4-11.3,87.5-24.9,95.3-28.3c5.9-2.6,9-6,10.5-8.4c0.3-0.5,0.3-1.2,0.1-1.7
				C234,128.2,229.4,130.4,224.9,132.4z"/>
			<path class="st2" d="M183.5,149.2l3-5.1c-2.7,0.8-6,1.7-8.9,2.6l-18.7,5.4l-7.8,6.5C163.2,155,171.8,152.5,183.5,149.2z"/>
			<path class="st1" d="M100.1,156L100.1,156c0,0-18.6-6.9-28.1-13.7l-8.5,2.6L78,166.8C82.1,164.6,90.3,160.3,100.1,156z"/>
			<polygon class="st4" points="133.5,156 126.7,153.9 122.9,155.1 125.9,158.3 			"/>
			<polygon class="st2" points="133.5,156 126.7,153.9 122.9,155.1 125.9,158.3 			"/>
			<path class="st3" d="M100.9,160.5l1.9-1.1c0,0-3.5,0.2-10.6,2.3s-21.1,7.2-21.1,7.2L100.9,160.5z"/>
			<path class="st4" d="M102.8,159.4c0,0-2.3,2.7-10.2,5.1c-6.8,2.1-18,4.4-20.7,5c-0.4,0.1-0.7-0.1-0.8-0.5l0,0L102.8,159.4z"/>
			<path class="st2" d="M102.8,159.4c0,0-2.3,2.7-10.2,5.1c-6.8,2.1-18,4.4-20.7,5c-0.4,0.1-0.7-0.1-0.8-0.5l0,0L102.8,159.4z"/>
			<g>
				<g>
					<path class="st5" d="M224.5,125.5l6.2-1.9c-2-0.6-4.5-1.1-7.3-1.4l-2.8,0.9c-0.2,0.1-0.2,0.3,0,0.5l3.6,1.9
						C224.2,125.5,224.4,125.5,224.5,125.5z"/>
					<path class="st5" d="M218.4,123.7l-2.7,0.8c-0.5,0.1-0.7,0.8-0.3,1.1l0.8,0.9c0.6,0.7,1.5,0.9,2.4,0.7l3.9-1.2
						c0.3-0.1,0.3-0.4,0.1-0.5l-3.3-1.8C219,123.6,218.7,123.6,218.4,123.7z"/>
				</g>
				<path class="st5" d="M198.5,134.2L198.5,134.2c-0.6,0.2-1.1-0.1-1.3-0.7l-0.3-1.1c-0.2-0.5,0.1-1.1,0.7-1.3l0,0
					c0.5-0.2,1.1,0.1,1.3,0.7l0.3,1.1C199.3,133.5,199,134.1,198.5,134.2z"/>
				<path class="st5" d="M195.3,135.2L195.3,135.2c-0.6,0.2-1.1-0.1-1.3-0.7l-0.3-1.1c-0.2-0.5,0.1-1.1,0.7-1.3l0,0
					c0.5-0.2,1.1,0.1,1.3,0.7l0.3,1.1C196.1,134.5,195.8,135,195.3,135.2z"/>
				<path class="st5" d="M192.1,136.2L192.1,136.2c-0.6,0.2-1.1-0.1-1.3-0.7l-0.3-1.1c-0.2-0.5,0.1-1.1,0.7-1.3l0,0
					c0.5-0.2,1.1,0.1,1.3,0.7l0.3,1.1C193,135.4,192.7,136,192.1,136.2z"/>
				<path class="st5" d="M189,137.1L189,137.1c-0.6,0.2-1.1-0.1-1.3-0.7l-0.3-1.1c-0.2-0.5,0.1-1.1,0.7-1.3l0,0
					c0.5-0.2,1.1,0.1,1.3,0.7l0.3,1.1C189.8,136.4,189.5,136.9,189,137.1z"/>
				<path class="st5" d="M185.8,138.1L185.8,138.1c-0.6,0.2-1.1-0.1-1.3-0.7l-0.3-1.1c-0.2-0.5,0.1-1.1,0.7-1.3l0,0
					c0.5-0.2,1.1,0.1,1.3,0.7l0.3,1.1C186.6,137.3,186.3,137.9,185.8,138.1z"/>
				<path class="st5" d="M182.6,139L182.6,139c-0.6,0.2-1.1-0.1-1.3-0.7l-0.3-1.1c-0.2-0.5,0.1-1.1,0.7-1.3l0,0
					c0.5-0.2,1.1,0.1,1.3,0.7l0.3,1.1C183.5,138.3,183.2,138.8,182.6,139z"/>
				<path class="st5" d="M179.5,140L179.5,140c-0.6,0.2-1.1-0.1-1.3-0.7l-0.3-1.1c-0.2-0.5,0.1-1.1,0.7-1.3l0,0
					c0.5-0.2,1.1,0.1,1.3,0.7l0.3,1.1C180.3,139.2,180,139.8,179.5,140z"/>
				<path class="st5" d="M176.3,140.9L176.3,140.9c-0.6,0.2-1.1-0.1-1.3-0.7l-0.3-1.1c-0.2-0.5,0.1-1.1,0.7-1.3l0,0
					c0.5-0.2,1.1,0.1,1.3,0.7l0.3,1.1C177.2,140.2,176.8,140.8,176.3,140.9z"/>
				<path class="st5" d="M173.1,141.9L173.1,141.9c-0.6,0.2-1.1-0.1-1.3-0.7l-0.3-1.1c-0.2-0.5,0.1-1.1,0.7-1.3l0,0
					c0.5-0.2,1.1,0.1,1.3,0.7l0.3,1.1C174,141.1,173.7,141.7,173.1,141.9z"/>
				<path class="st5" d="M163.6,144.7L163.6,144.7c-0.6,0.2-1.1-0.1-1.3-0.7l-0.3-1.1c-0.2-0.5,0.1-1.1,0.7-1.3l0,0
					c0.5-0.2,1.1,0.1,1.3,0.7l0.3,1.1C164.5,144,164.2,144.6,163.6,144.7z"/>
				<path class="st5" d="M160.5,145.7L160.5,145.7c-0.6,0.2-1.1-0.1-1.3-0.7l-0.3-1.1c-0.2-0.5,0.1-1.1,0.7-1.3l0,0
					c0.5-0.2,1.1,0.1,1.3,0.7l0.3,1.1C161.3,144.9,161,145.5,160.5,145.7z"/>
				<path class="st5" d="M157.3,146.6L157.3,146.6c-0.6,0.2-1.1-0.1-1.3-0.7l-0.3-1.1c-0.2-0.5,0.1-1.1,0.7-1.3l0,0
					c0.5-0.2,1.1,0.1,1.3,0.7l0.3,1.1C158.2,145.9,157.9,146.5,157.3,146.6z"/>
				<path class="st5" d="M154.1,147.6L154.1,147.6c-0.6,0.2-1.1-0.1-1.3-0.7l-0.3-1.1c-0.2-0.5,0.1-1.1,0.7-1.3l0,0
					c0.5-0.2,1.1,0.1,1.3,0.7l0.3,1.1C155,146.9,154.7,147.4,154.1,147.6z"/>
				<path class="st5" d="M151,148.5L151,148.5c-0.6,0.2-1.1-0.1-1.3-0.7l-0.3-1.1c-0.2-0.5,0.1-1.1,0.7-1.3l0,0
					c0.5-0.2,1.1,0.1,1.3,0.7l0.3,1.1C151.8,147.8,151.5,148.4,151,148.5z"/>
				<path class="st5" d="M147.8,149.5L147.8,149.5c-0.6,0.2-1.1-0.1-1.3-0.7l-0.3-1.1c-0.2-0.5,0.1-1.1,0.7-1.3l0,0
					c0.5-0.2,1.1,0.1,1.3,0.7l0.3,1.1C148.7,148.8,148.4,149.3,147.8,149.5z"/>
				<path class="st5" d="M144.7,150.5L144.7,150.5c-0.6,0.2-1.1-0.1-1.3-0.7l-0.3-1.1c-0.2-0.5,0.1-1.1,0.7-1.3l0,0
					c0.5-0.2,1.1,0.1,1.3,0.7l0.3,1.1C145.5,149.7,145.2,150.3,144.7,150.5z"/>
				<path class="st5" d="M141.5,151.4L141.5,151.4c-0.6,0.2-1.1-0.1-1.3-0.7l-0.3-1.1c-0.2-0.5,0.1-1.1,0.7-1.3l0,0
					c0.5-0.2,1.1,0.1,1.3,0.7l0.3,1.1C142.3,150.7,142,151.2,141.5,151.4z"/>
				<path class="st5" d="M138.3,152.4L138.3,152.4c-0.6,0.2-1.1-0.1-1.3-0.7l-0.3-1.1c-0.2-0.5,0.1-1.1,0.7-1.3l0,0
					c0.5-0.2,1.1,0.1,1.3,0.7l0.3,1.1C139.2,151.6,138.9,152.2,138.3,152.4z"/>
				<path class="st5" d="M120.6,157.7L120.6,157.7c-0.6,0.2-1.1-0.1-1.3-0.7l-0.3-1.1c-0.2-0.5,0.1-1.1,0.7-1.3l0,0
					c0.5-0.2,1.1,0.1,1.3,0.7l0.3,1.1C121.5,156.9,121.2,157.5,120.6,157.7z"/>
				<path class="st5" d="M117.5,158.6L117.5,158.6c-0.6,0.2-1.1-0.1-1.3-0.7l-0.3-1.1c-0.2-0.5,0.1-1.1,0.7-1.3l0,0
					c0.5-0.2,1.1,0.1,1.3,0.7l0.3,1.1C118.3,157.9,118,158.5,117.5,158.6z"/>
				<path class="st5" d="M114.3,159.6L114.3,159.6c-0.6,0.2-1.1-0.1-1.3-0.7l-0.3-1.1c-0.2-0.5,0.1-1.1,0.7-1.3l0,0
					c0.5-0.2,1.1,0.1,1.3,0.7l0.3,1.1C115.2,158.9,114.9,159.4,114.3,159.6z"/>
				<path class="st5" d="M111.1,160.5L111.1,160.5c-0.6,0.2-1.1-0.1-1.3-0.7l-0.3-1.1c-0.2-0.5,0.1-1.1,0.7-1.3l0,0
					c0.5-0.2,1.1,0.1,1.3,0.7l0.3,1.1C112,159.8,111.7,160.4,111.1,160.5z"/>
				<path class="st5" d="M204.7,135.7l-1.6,0.5c-0.6,0.2-1.2-0.1-1.3-0.7l-1.4-4.5c-0.2-0.6,0.1-1.2,0.7-1.3l1.6-0.5
					c0.6-0.2,1.2,0.1,1.3,0.7l1.4,4.5C205.6,135,205.3,135.6,204.7,135.7z"/>
				<path class="st5" d="M170.3,146.1l-1.6,0.5c-0.6,0.2-1.2-0.1-1.3-0.7l-1.4-4.5c-0.2-0.6,0.1-1.2,0.7-1.3l1.6-0.5
					c0.6-0.2,1.2,0.1,1.3,0.7l1.4,4.5C171.2,145.3,170.8,145.9,170.3,146.1z"/>
			</g>
			<path class="st3" d="M184.6,145l2-1.3c0,0-5.6,0.2-14.3,2.8s-21.9,6.8-30.3,8.2c0,0,19.3-2.1,21-2.6
				C164.7,151.7,184.6,145,184.6,145z"/>
			<path class="st4" d="M186.6,143.7c0,0-34.6,10.1-53,12.3l-7.6,2.3c0,0,19.4-0.1,38.3-5.8C164.3,152.5,187.4,146.6,186.6,143.7z"
				/>
			<path class="st2" d="M186.6,143.7c0,0-34.6,10.1-53,12.3l-7.6,2.3c0,0,19.4-0.1,38.3-5.8C164.3,152.5,187.4,146.6,186.6,143.7z"
				/>
			<g>
				<path class="st5" d="M92.1,152.8l-22.1,2l2.1,3.2l21.7-4.4C93.3,153.3,92.7,153,92.1,152.8z"/>
				<polygon class="st5" points="67.9,151.5 69,153.2 83.6,152.2 				"/>
			</g>
		</g>
		<g>
			<path class="st6" d="M71,188.1l-6,1.8c-0.7,0.2-1.2,1-0.9,1.7c0.2,0.6,0.8,1,1.5,1c0.1,0,0.2,0,0.3-0.1l6-1.8
				c0.7-0.2,1.2-1,0.9-1.7C72.5,188.3,71.8,187.8,71,188.1z"/>
			<path class="st6" d="M139.3,169.1c-0.2-0.7-1-1.2-1.7-0.9l-60,18c-0.7,0.2-1.2,1-0.9,1.7c0.2,0.6,0.8,1,1.5,1
				c0.1,0,0.2,0,0.3-0.1l60-18C139.1,170.6,139.5,169.8,139.3,169.1z"/>
			<path class="st6" d="M52.7,182.9l-12.1,3.6c-0.7,0.2-1.2,1-0.9,1.7c0.2,0.6,0.8,1,1.5,1c0.1,0,0.2,0,0.3-0.1l12.1-3.6
				c0.7-0.2,1.2-1,0.9-1.7C54.2,183.1,53.5,182.7,52.7,182.9z"/>
			<path class="st6" d="M81.3,175.8c-0.2-0.7-1-1.2-1.7-0.9l-18.7,5.6c-0.7,0.2-1.2,1-0.9,1.7c0.2,0.6,0.8,1,1.5,1
				c0.1,0,0.2,0,0.3-0.1l18.7-5.6C81.1,177.3,81.6,176.5,81.3,175.8z"/>
			<path class="st6" d="M60.4,166.7l-10.5,3.2c-0.7,0.2-1.2,1-0.9,1.7c0.2,0.6,0.8,1,1.5,1c0.1,0,0.2,0,0.3-0.1l10.5-3.2
				c0.7-0.2,1.2-1,0.9-1.7S61.2,166.5,60.4,166.7z"/>
			<path class="st6" d="M64,167.1c0.2,0.6,0.8,1,1.5,1c0.1,0,0.2,0,0.3-0.1l4.8-1.4c0.7-0.2,1.2-1,0.9-1.7s-1-1.2-1.7-0.9l-4.8,1.4
				C64.2,165.6,63.8,166.4,64,167.1z"/>
			<path class="st6" d="M38.9,166.5c0.1,0,0.2,0,0.3-0.1l26.6-8c0.7-0.2,1.2-1,0.9-1.7s-1-1.2-1.7-0.9l-26.6,8
				c-0.7,0.2-1.2,1-0.9,1.7C37.6,166.2,38.2,166.6,38.9,166.5z"/>
		</g>
	</g>
</g>
<path class="st1" d="M259.5,194.2c-1.3,0-2.6,0.2-3.8,0.7c-2.6-3.8-6.9-6.3-11.8-6.3c-1.8,0-3.5,0.3-5.1,0.9
	c-3-7.2-10.1-12.3-18.4-12.3c-6.5,0-12.2,3.1-15.8,7.8c-1.5-0.5-3.1-0.7-4.8-0.7c-2.9,0-5.7,0.8-8.1,2.1c-3.2-3.2-7.7-5.2-12.5-5.2
	c-8.2,0-15.1,5.5-17.2,13c-0.4,0-0.9-0.1-1.3-0.1c-6.3,0-11.4,5.1-11.4,11.4c0,0.8,0.1,1.6,0.2,2.3h121.1c0.2-0.8,0.2-1.5,0.2-2.3
	C270.9,199.3,265.8,194.2,259.5,194.2z"/>
<path class="st6" d="M36.6,230.8c1.2,0,2.3,0.2,3.3,0.6c2.2-3.3,5.9-5.5,10.2-5.5c1.5,0,3,0.3,4.4,0.8c2.6-6.2,8.7-10.6,15.9-10.6
	c5.6,0,10.5,2.6,13.6,6.7c1.3-0.4,2.7-0.6,4.1-0.6c2.5,0,4.9,0.7,7,1.8c2.8-2.7,6.6-4.4,10.8-4.4c7.1,0,13,4.8,14.8,11.2
	c0.4,0,0.7-0.1,1.1-0.1c5.4,0,9.8,4.4,9.8,9.8c0,0.7-0.1,1.4-0.2,2H27c-0.1-0.6-0.2-1.3-0.2-2C26.8,235.2,31.2,230.8,36.6,230.8z"/>
<path class="st6" d="M182.5,70.4c1,0,1.9,0.2,2.8,0.5c1.9-2.8,5.1-4.7,8.7-4.7c1.3,0,2.6,0.2,3.7,0.7c2.2-5.3,7.5-9.1,13.6-9.1
	c4.8,0,9,2.3,11.7,5.8c1.1-0.3,2.3-0.5,3.5-0.5c2.2,0,4.2,0.6,6,1.6c2.4-2.3,5.6-3.8,9.3-3.8c6,0,11.1,4.1,12.7,9.6
	c0.3,0,0.6-0.1,1-0.1c4.6,0,8.4,3.8,8.4,8.4c0,0.6-0.1,1.2-0.2,1.7h-89.4c-0.1-0.6-0.2-1.1-0.2-1.7
	C174.1,74.2,177.8,70.4,182.5,70.4z"/>
<path class="st1" d="M143.7,88.9c-1.4,0-2.8,0.2-4.1,0.7c-2.7-4.1-7.4-6.8-12.6-6.8c-1.9,0-3.7,0.4-5.4,1
	c-3.2-7.7-10.8-13.1-19.6-13.1c-6.9,0-13,3.3-16.9,8.3c-1.6-0.5-3.3-0.8-5.1-0.8c-3.1,0-6.1,0.8-8.6,2.3C68,77.1,63.3,75,58.1,75
	c-8.7,0-16.1,5.9-18.3,13.9c-0.5-0.1-0.9-0.1-1.4-0.1c-6.7,0-12.1,5.4-12.1,12.1c0,0.8,0.1,1.7,0.3,2.5h129.1
	c0.2-0.8,0.3-1.6,0.3-2.5C155.8,94.3,150.4,88.9,143.7,88.9z"/>
</svg>
